<svg width="41" height="41" viewBox="0 0 41 41" fill="none" xmlns="http://www.w3.org/2000/svg">
<path fill-rule="evenodd" clip-rule="evenodd" d="M15.2273 11.2317C17.3723 10.4736 18.9091 8.42786 18.9091 6.02322C18.9091 2.97311 16.4365 0.500488 13.3864 0.500488C10.3363 0.500488 7.86365 2.97311 7.86365 6.02322C7.86365 8.42786 9.40046 10.4736 11.5455 11.2317V20.7504C11.5455 23.8006 14.0181 26.2732 17.0682 26.2732H26.1432C26.7588 26.2732 27.3335 26.5808 27.675 27.0929L32.6999 34.6305C33.9888 36.5637 36.724 36.8347 38.3668 35.1917L40.4608 33.0978C41.1797 32.3787 41.1797 31.2133 40.4608 30.4942C39.742 29.7753 38.5763 29.7753 37.8574 30.4942L35.7634 32.5882L30.7384 25.0506C29.7142 23.5142 27.9898 22.5913 26.1432 22.5913H17.0682C16.0515 22.5913 15.2273 21.7672 15.2273 20.7504V18.9095H26.2728C27.2895 18.9095 28.1137 18.0854 28.1137 17.0686C28.1137 16.052 27.2895 15.2278 26.2728 15.2278H15.2273V11.2317ZM13.3864 8.06174C12.2606 8.06174 11.3479 7.14907 11.3479 6.02322C11.3479 4.89739 12.2606 3.98473 13.3864 3.98473C14.5122 3.98473 15.4249 4.89739 15.4249 6.02322C15.4249 7.14907 14.5122 8.06174 13.3864 8.06174Z" fill="white"/>
<path d="M7.18766 15.3638C8.05725 14.8405 9.14746 15.2787 9.55075 16.21C9.95404 17.1413 9.51318 18.2105 8.66987 18.7751C7.73465 19.4012 6.9067 20.1814 6.22306 21.0862C5.16851 22.482 4.49334 24.1272 4.26328 25.8613C4.03323 27.5955 4.25612 29.3596 4.91027 30.9822C5.5644 32.6046 6.62751 34.03 7.99608 35.1198C9.36463 36.2095 10.992 36.9261 12.7198 37.2002C14.4476 37.4742 16.2169 37.2961 17.8554 36.6835C19.494 36.0707 20.9461 35.0442 22.0701 33.7038C22.7988 32.8347 23.3735 31.8531 23.7743 30.8014C24.1356 29.853 25.0787 29.1838 26.0769 29.3683C27.0748 29.5525 27.7462 30.5168 27.4309 31.4816C26.885 33.1526 26.0231 34.7097 24.8862 36.0653C23.3544 37.8921 21.3757 39.291 19.1427 40.126C16.9098 40.9609 14.4987 41.2035 12.1441 40.8301C9.78955 40.4566 7.57182 39.4798 5.7068 37.995C3.84177 36.5101 2.39303 34.5676 1.50159 32.3564C0.610143 30.1455 0.306404 27.7413 0.619918 25.3779C0.933444 23.0147 1.85353 20.7729 3.29062 18.8707C4.35713 17.459 5.68141 16.2703 7.18766 15.3638Z" fill="white"/>
</svg>
