<svg width="40" height="40" viewBox="0 0 40 40" fill="none" xmlns="http://www.w3.org/2000/svg">
<path d="M38 20H8V8C8 6.93913 8.42143 5.92172 9.17157 5.17157C9.92172 4.42143 10.9391 4 12 4H16C16.7996 4.00138 17.5805 4.24241 18.2418 4.69196C18.9031 5.14151 19.4145 5.77895 19.71 6.522C18.5824 7.08341 17.6361 7.95159 16.9798 9.02676C16.3235 10.1019 15.9839 11.3405 16 12.6V13.912C15.9942 14.1804 16.0413 14.4474 16.1386 14.6976C16.236 14.9479 16.3817 15.1764 16.5674 15.3703C16.7531 15.5643 16.9753 15.7197 17.2211 15.8277C17.4669 15.9357 17.7316 15.9943 18 16H26C26.5414 15.9884 27.0562 15.7625 27.4311 15.3718C27.8061 14.981 28.0107 14.4575 28 13.916V12.25C28.0143 10.9467 27.6176 9.6721 26.8661 8.6072C26.1146 7.5423 25.0467 6.7413 23.814 6.318C23.4296 4.53051 22.4445 2.92863 21.0227 1.77907C19.601 0.629512 17.8284 0.00164139 16 0H12C9.87827 0 7.84344 0.842855 6.34315 2.34315C4.84285 3.84344 4 5.87827 4 8V20H2C1.46957 20 0.960859 20.2107 0.585786 20.5858C0.210714 20.9609 0 21.4696 0 22C0 22.5304 0.210714 23.0391 0.585786 23.4142C0.960859 23.7893 1.46957 24 2 24H4V30C4 31.0609 4.42143 32.0783 5.17157 32.8284C5.92172 33.5786 6.93913 34 8 34V38C8 38.5304 8.21071 39.0391 8.58579 39.4142C8.96086 39.7893 9.46957 40 10 40C10.5304 40 11.0391 39.7893 11.4142 39.4142C11.7893 39.0391 12 38.5304 12 38V34H28V38C28 38.5304 28.2107 39.0391 28.5858 39.4142C28.9609 39.7893 29.4696 40 30 40C30.5304 40 31.0391 39.7893 31.4142 39.4142C31.7893 39.0391 32 38.5304 32 38V34C33.0609 34 34.0783 33.5786 34.8284 32.8284C35.5786 32.0783 36 31.0609 36 30V24H38C38.5304 24 39.0391 23.7893 39.4142 23.4142C39.7893 23.0391 40 22.5304 40 22C40 21.4696 39.7893 20.9609 39.4142 20.5858C39.0391 20.2107 38.5304 20 38 20Z" fill="#052B32"/>
</svg>
