<svg width="57" height="22" viewBox="0 0 57 22" fill="none" xmlns="http://www.w3.org/2000/svg">
<path fill-rule="evenodd" clip-rule="evenodd" d="M53.0188 7.11527V10.6976H6.80824V0.275269H0V10.6976V18.5153V21.0741H6.80824V17.4282H53.0188V21.0741H56.3294V7.11527H53.0188Z" fill="#052B32"/>
<path d="M14.0329 6.84706C15.9529 6.84706 17.5093 5.31429 17.5093 3.42353C17.5093 1.53277 15.9529 0 14.0329 0C12.1129 0 10.5564 1.53277 10.5564 3.42353C10.5564 5.31429 12.1129 6.84706 14.0329 6.84706Z" fill="#052B32"/>
<path fill-rule="evenodd" clip-rule="evenodd" d="M49.3483 7.05174H21.1907V3.99527C21.1907 1.88468 23.4601 0.172913 26.2519 0.172913H44.2836C47.0824 0.172913 49.3483 1.88468 49.3483 3.99527V7.05174Z" fill="#052B32"/>
</svg>
