<svg width="60" height="60" viewBox="0 0 60 60" fill="none" xmlns="http://www.w3.org/2000/svg">
<path d="M55.8622 9.82758H4.13802C2.13837 9.82758 0.517334 11.4486 0.517334 13.4483V46.5517C0.517334 48.5514 2.13837 50.1724 4.13802 50.1724H55.8622C57.8618 50.1724 59.4828 48.5514 59.4828 46.5517V13.4483C59.4828 11.4486 57.8618 9.82758 55.8622 9.82758Z" fill="white" stroke="#F3F3F3" stroke-width="1.03448"/>
<path fill-rule="evenodd" clip-rule="evenodd" d="M19.7265 30.3335C19.7265 32.8598 21.7102 34.8186 24.2631 34.8186C24.9847 34.8186 25.6029 34.6768 26.365 34.3179V32.3445C25.695 33.0152 25.1012 33.2858 24.3411 33.2858C22.6527 33.2858 21.4542 32.0615 21.4542 30.3209C21.4542 28.6709 22.6905 27.3692 24.2631 27.3692C25.0627 27.3692 25.6681 27.6545 26.365 28.3362V26.3638C25.6292 25.9906 25.0242 25.8358 24.3027 25.8358C21.7627 25.8358 19.7265 27.8344 19.7265 30.3335ZM15.4242 28.2462C15.4242 28.7106 15.7194 28.956 16.7256 29.3283C18.6325 30.026 19.1977 30.6439 19.1977 32.0096C19.1977 33.6733 17.9754 34.8318 16.2335 34.8318C14.9577 34.8318 14.0299 34.3294 13.2576 33.1954L14.3407 32.1525C14.7265 32.8988 15.3707 33.299 16.1704 33.299C16.9185 33.299 17.4721 32.783 17.4721 32.0867C17.4721 31.7257 17.3044 31.4159 16.9693 31.1971C16.8009 31.0935 16.4669 30.9394 15.8104 30.7076C14.2358 30.1411 13.6959 29.5348 13.6959 28.3507C13.6959 26.9442 14.8558 25.8882 16.3765 25.8882C17.319 25.8882 18.1813 26.2103 18.9021 26.8408L18.0249 27.9894C17.5882 27.5 17.1752 27.2934 16.6731 27.2934C15.9505 27.2934 15.4242 27.7049 15.4242 28.2462ZM10.9497 34.6251H12.6262V26.0302H10.9497V34.6251ZM7.52285 32.4867C6.99621 32.9626 6.31184 33.1701 5.22867 33.1701H4.77874V27.4862H5.22867C6.31184 27.4862 6.96932 27.6802 7.52285 28.1816C8.10262 28.6976 8.45128 29.4979 8.45128 30.321C8.45128 31.1462 8.10262 31.9707 7.52285 32.4867ZM5.56438 26.0302H3.10352V34.6248H5.55143C6.85309 34.6248 7.79282 34.318 8.61797 33.6326C9.59854 32.8215 10.1783 31.5985 10.1783 30.3336C10.1783 27.7971 8.28326 26.0302 5.56438 26.0302ZM37.3659 26.0302L39.6577 31.8033L41.9795 26.0302H43.7968L40.0838 34.8456H39.1815L35.5342 26.0302H37.3659ZM44.5549 34.625H49.3093V33.1699H46.2301V30.8499H49.196V29.394H46.2301V27.4864H49.3093V26.03H44.5549V34.625ZM52.0941 29.987H52.5839C53.6548 29.987 54.2223 29.5218 54.2223 28.6578C54.2223 27.8214 53.6548 27.384 52.6104 27.384H52.0941V29.987ZM52.9057 26.0299C54.8389 26.0299 55.9473 26.9583 55.9473 28.5675C55.9473 29.8834 55.252 30.7474 53.9892 31.0041L56.6951 34.6249H54.6334L52.3129 31.1721H52.0941V34.6249H50.4195V26.0299H52.9057Z" fill="#1D1D1B"/>
<path fill-rule="evenodd" clip-rule="evenodd" d="M35.3365 32.8208C36.6971 30.6931 36.0757 27.8665 33.9483 26.506C31.8208 25.1454 28.9936 25.7665 27.6329 27.8942C26.2725 30.0213 26.8943 32.8489 29.0217 34.2094C31.1491 35.57 33.976 34.948 35.3365 32.8208Z" fill="url(#paint0_linear_104_14)"/>
<defs>
<linearGradient id="paint0_linear_104_14" x1="37.7998" y1="28.9691" x2="30.0962" y2="24.0424" gradientUnits="userSpaceOnUse">
<stop stop-color="#F6A000"/>
<stop offset="0.623918" stop-color="#E47E02"/>
<stop offset="1" stop-color="#D36002"/>
</linearGradient>
</defs>
</svg>
