<svg width="60" height="60" viewBox="0 0 60 60" fill="none" xmlns="http://www.w3.org/2000/svg">
<path fill-rule="evenodd" clip-rule="evenodd" d="M36 26.9993C37.5076 26.999 38.9749 26.5122 40.1838 25.6112C41.3927 24.7102 42.2786 23.4431 42.71 21.9981H48C48.5304 21.9981 49.0391 21.7874 49.4142 21.4122C49.7893 21.0371 50 20.5282 50 19.9977C50 19.4671 49.7893 18.9583 49.4142 18.5831C49.0391 18.208 48.5304 17.9972 48 17.9972H42.71C42.2779 16.553 41.3917 15.2868 40.1828 14.3865C38.974 13.4862 37.5071 13 36 13C34.4929 13 33.026 13.4862 31.8172 14.3865C30.6083 15.2868 29.7221 16.553 29.29 17.9972H12C11.4696 17.9972 10.9609 18.208 10.5858 18.5831C10.2107 18.9583 10 19.4671 10 19.9977C10 20.5282 10.2107 21.0371 10.5858 21.4122C10.9609 21.7874 11.4696 21.9981 12 21.9981H29.29C29.7214 23.4431 30.6073 24.7102 31.8162 25.6112C33.0251 26.5122 34.4924 26.999 36 26.9993ZM12 38.0019C11.4696 38.0019 10.9609 38.2126 10.5858 38.5878C10.2107 38.9629 10 39.4718 10 40.0023C10 40.5329 10.2107 41.0417 10.5858 41.4169C10.9609 41.792 11.4696 42.0028 12 42.0028H16.29C16.7221 43.447 17.6083 44.7132 18.8172 45.6135C20.026 46.5138 21.4929 47 23 47C24.5071 47 25.974 46.5138 27.1828 45.6135C28.3917 44.7132 29.2779 43.447 29.71 42.0028H48C48.5304 42.0028 49.0391 41.792 49.4142 41.4169C49.7893 41.0417 50 40.5329 50 40.0023C50 39.4718 49.7893 38.9629 49.4142 38.5878C49.0391 38.2126 48.5304 38.0019 48 38.0019H29.71C29.2779 36.5577 28.3917 35.2914 27.1828 34.3912C25.974 33.4909 24.5071 33.0047 23 33.0047C21.4929 33.0047 20.026 33.4909 18.8172 34.3912C17.6083 35.2914 16.7221 36.5577 16.29 38.0019H12Z" fill="#052B32"/>
</svg>
