<svg width="25" height="25" viewBox="0 0 25 25" fill="none" xmlns="http://www.w3.org/2000/svg">
<g clip-path="url(#clip0_72_11)">
<path fill-rule="evenodd" clip-rule="evenodd" d="M21.4286 0H17.8571C15.8848 0 14.2857 1.59911 14.2857 3.57143V7.14286C14.2857 9.11518 15.8848 10.7143 17.8571 10.7143H21.4286C23.4009 10.7143 25 9.11518 25 7.14286V3.57143C25 1.59911 23.4009 0 21.4286 0ZM21.4286 14.2857H17.8571C15.8848 14.2857 14.2857 15.8848 14.2857 17.8571V21.4286C14.2857 23.4009 15.8848 25 17.8571 25H21.4286C23.4009 25 25 23.4009 25 21.4286V17.8571C25 15.8848 23.4009 14.2857 21.4286 14.2857ZM7.14286 14.2857H3.57143C1.59911 14.2857 0 15.8848 0 17.8571V21.4286C0 23.4009 1.59911 25 3.57143 25H7.14286C9.11518 25 10.7143 23.4009 10.7143 21.4286V17.8571C10.7143 15.8848 9.11518 14.2857 7.14286 14.2857ZM7.14286 0H3.57143C1.59911 0 0 1.59911 0 3.57143V7.14286C0 9.11518 1.59911 10.7143 3.57143 10.7143H7.14286C9.11518 10.7143 10.7143 9.11518 10.7143 7.14286V3.57143C10.7143 1.59911 9.11518 0 7.14286 0Z" fill="white"/>
</g>
<defs>
<clipPath id="clip0_72_11">
<rect width="25" height="25" fill="white"/>
</clipPath>
</defs>
</svg>
