<svg width="34" height="36" viewBox="0 0 34 36" fill="none" xmlns="http://www.w3.org/2000/svg">
<path d="M16.2555 0.333313C18.1848 0.333313 19.7735 1.79246 19.9778 3.66741L22.9167 3.66665C24.9015 3.66665 26.526 5.20858 26.658 7.1599L26.6667 7.41665V15.6231C25.8642 15.4336 25.0272 15.3333 24.1667 15.3333V7.41665C24.1667 6.78381 23.6963 6.26083 23.0863 6.17806L22.9167 6.16665L19.3627 6.16801C18.6902 7.16586 17.5495 7.82215 16.2555 7.82215H10.4111C9.11718 7.82215 7.97657 7.16586 7.30395 6.16801L3.75 6.16665C3.11717 6.16665 2.59418 6.6369 2.51142 7.24703L2.5 7.41665V29.9243C2.5 30.5571 2.97025 31.0801 3.58038 31.1628L3.75 31.1743H14.5577C15.0373 32.0928 15.6448 32.934 16.3567 33.6743H3.75C1.76523 33.6743 0.1406 32.1323 0.00864983 30.181L0 29.9243V7.41665C0 5.43188 1.54193 3.80725 3.49325 3.6753L3.75 3.66665L6.6889 3.66741C6.89325 1.79246 8.48177 0.333313 10.4111 0.333313H16.2555ZM16.2555 2.83331H10.4111C9.72382 2.83331 9.16667 3.39046 9.16667 4.07773C9.16667 4.76501 9.72382 5.32215 10.4111 5.32215H16.2555C16.9428 5.32215 17.5 4.76501 17.5 4.07773C17.5 3.39046 16.9428 2.83331 16.2555 2.83331Z" fill="#052B32"/>
<path d="M8.75008 20.3258H15.0412C13.9602 22.0113 13.3334 24.0158 13.3334 26.1666C13.3334 26.7328 13.3769 27.2888 13.4606 27.8315L13.3334 27.832C9.12015 27.832 6.66675 26.3173 6.66675 23.238V22.4091C6.66675 21.2586 7.59948 20.3258 8.75008 20.3258Z" fill="#052B32"/>
<path d="M13.3334 10.3259C15.6346 10.3259 17.5001 12.1913 17.5001 14.4925C17.5001 16.7937 15.6346 18.6592 13.3334 18.6592C11.0322 18.6592 9.16675 16.7937 9.16675 14.4925C9.16675 12.1913 11.0322 10.3259 13.3334 10.3259Z" fill="#052B32"/>
<path d="M33.3333 26.1667C33.3333 21.104 29.2293 17 24.1667 17C19.104 17 15 21.104 15 26.1667C15 31.2293 19.104 35.3333 24.1667 35.3333C29.2293 35.3333 33.3333 31.2293 33.3333 26.1667ZM25.001 27L25.0018 31.1725C25.0018 31.6328 24.6288 32.0058 24.1685 32.0058C23.7083 32.0058 23.3352 31.6328 23.3352 31.1725L23.3343 27H19.1602C18.7 27 18.3268 26.627 18.3268 26.1667C18.3268 25.7065 18.7 25.3333 19.1602 25.3333H23.3342L23.3333 21.1655C23.3333 20.7052 23.7065 20.3322 24.1667 20.3322C24.6268 20.3322 25 20.7052 25 21.1655L25.0008 25.3333H29.1717C29.632 25.3333 30.005 25.7065 30.005 26.1667C30.005 26.627 29.632 27 29.1717 27H25.001Z" fill="#052B32"/>
</svg>
