<svg width="50" height="44" viewBox="0 0 50 44" fill="none" xmlns="http://www.w3.org/2000/svg">
<path d="M46.75 8.25H35.75V2.75C35.75 1.22891 34.5211 0 33 0H16.5C14.9789 0 13.75 1.22891 13.75 2.75V8.25H2.75C1.22891 8.25 0 9.47891 0 11V42.625C0 43.3813 0.61875 44 1.375 44H48.125C48.8813 44 49.5 43.3813 49.5 42.625V11C49.5 9.47891 48.2711 8.25 46.75 8.25ZM13.75 37.4688C13.75 38.0359 13.2859 38.5 12.7188 38.5H9.28125C8.71406 38.5 8.25 38.0359 8.25 37.4688V34.0312C8.25 33.4641 8.71406 33 9.28125 33H12.7188C13.2859 33 13.75 33.4641 13.75 34.0312V37.4688ZM13.75 26.4688C13.75 27.0359 13.2859 27.5 12.7188 27.5H9.28125C8.71406 27.5 8.25 27.0359 8.25 26.4688V23.0312C8.25 22.4641 8.71406 22 9.28125 22H12.7188C13.2859 22 13.75 22.4641 13.75 23.0312V26.4688ZM27.5 37.4688C27.5 38.0359 27.0359 38.5 26.4688 38.5H23.0312C22.4641 38.5 22 38.0359 22 37.4688V34.0312C22 33.4641 22.4641 33 23.0312 33H26.4688C27.0359 33 27.5 33.4641 27.5 34.0312V37.4688ZM27.5 26.4688C27.5 27.0359 27.0359 27.5 26.4688 27.5H23.0312C22.4641 27.5 22 27.0359 22 26.4688V23.0312C22 22.4641 22.4641 22 23.0312 22H26.4688C27.0359 22 27.5 22.4641 27.5 23.0312V26.4688ZM28.875 11.8594C28.875 12.143 28.643 12.375 28.3594 12.375H26.125V14.6094C26.125 14.893 25.893 15.125 25.6094 15.125H23.8906C23.607 15.125 23.375 14.893 23.375 14.6094V12.375H21.1406C20.857 12.375 20.625 12.143 20.625 11.8594V10.1406C20.625 9.85703 20.857 9.625 21.1406 9.625H23.375V7.39062C23.375 7.10703 23.607 6.875 23.8906 6.875H25.6094C25.893 6.875 26.125 7.10703 26.125 7.39062V9.625H28.3594C28.643 9.625 28.875 9.85703 28.875 10.1406V11.8594ZM41.25 37.4688C41.25 38.0359 40.7859 38.5 40.2188 38.5H36.7812C36.2141 38.5 35.75 38.0359 35.75 37.4688V34.0312C35.75 33.4641 36.2141 33 36.7812 33H40.2188C40.7859 33 41.25 33.4641 41.25 34.0312V37.4688ZM41.25 26.4688C41.25 27.0359 40.7859 27.5 40.2188 27.5H36.7812C36.2141 27.5 35.75 27.0359 35.75 26.4688V23.0312C35.75 22.4641 36.2141 22 36.7812 22H40.2188C40.7859 22 41.25 22.4641 41.25 23.0312V26.4688Z" fill="#AAAAAA"/>
</svg>
