<svg width="28" height="39" viewBox="0 0 28 39" fill="none" xmlns="http://www.w3.org/2000/svg">
<path d="M16.4202 0.686279C20.9686 0.686279 24.6303 4.34798 24.6303 8.89638V17.1065C26.1464 17.1065 27.367 18.3271 27.367 19.8432V28.0533V36.2634V39.0001H24.6303H2.7367H-5.72205e-06V36.2634V28.0533V19.8432C-5.72205e-06 18.3271 1.22056 17.1065 2.7367 17.1065V8.89638C2.7367 4.34798 6.3984 0.686279 10.9468 0.686279H16.4202ZM16.4202 4.79133H10.9468C8.6726 4.79133 6.84175 6.62218 6.84175 8.89638V17.1065H20.5253V8.89638C20.5253 6.62218 18.6944 4.79133 16.4202 4.79133ZM13.6835 22.5799C12.9577 22.5799 12.2616 22.8682 11.7484 23.3814C11.2351 23.8947 10.9468 24.5908 10.9468 25.3166C10.9474 25.8354 11.0955 26.3433 11.3737 26.7812C11.652 27.2191 12.049 27.5688 12.5184 27.7897L10.9959 33.5267H16.4202L14.8922 27.7682C15.3502 27.5427 15.736 27.1936 16.006 26.7604C16.276 26.3272 16.4195 25.8271 16.4202 25.3166C16.4202 24.5908 16.1319 23.8947 15.6186 23.3814C15.1054 22.8682 14.4093 22.5799 13.6835 22.5799Z" fill="white"/>
</svg>
