<svg width="44" height="44" viewBox="0 0 44 44" fill="none" xmlns="http://www.w3.org/2000/svg">
<path d="M16 12C16.0242 7.64994 16.2171 5.29412 17.7541 3.75736C19.5118 2 22.3406 2 27.9981 2H29.9984C35.6559 2 38.4849 2 40.2424 3.75736C42 5.51472 42 8.34314 42 14V30C42 35.6568 42 38.4852 40.2424 40.2426C38.4849 42 35.6559 42 29.9984 42H27.9981C22.3406 42 19.5118 42 17.7541 40.2426C16.2171 38.7058 16.0242 36.35 16 32" stroke="#052B32" stroke-width="3.75" stroke-linecap="round"/>
<path d="M28 22H2M2 22L9 16M2 22L9 28" stroke="#052B32" stroke-width="3.75" stroke-linecap="round" stroke-linejoin="round"/>
</svg>
