<svg width="36" height="36" viewBox="0 0 36 36" fill="none" xmlns="http://www.w3.org/2000/svg">
<path d="M7.5 23C4.72295 24.0588 3 25.5342 3 27.1662C3 30.3882 9.71573 33 18 33C26.2843 33 33 30.3882 33 27.1662C33 25.5342 31.277 24.0588 28.5 23M18 13H18.0167M28 13C28 19.7728 20.5 23 18 28C15.5 23 8 19.7728 8 13C8 7.47715 12.4771 3 18 3C23.5228 3 28 7.47715 28 13ZM19.6667 13C19.6667 13.9205 18.9205 14.6667 18 14.6667C17.0795 14.6667 16.3333 13.9205 16.3333 13C16.3333 12.0795 17.0795 11.3333 18 11.3333C18.9205 11.3333 19.6667 12.0795 19.6667 13Z" stroke="#052B32" stroke-width="5" stroke-linecap="round" stroke-linejoin="round"/>
</svg>
