<svg width="56" height="42" viewBox="0 0 56 42" fill="none" xmlns="http://www.w3.org/2000/svg">
<path d="M56.3448 1H4.62069C2.62104 1 1 2.62104 1 4.62069V37.7241C1 39.7238 2.62104 41.3448 4.62069 41.3448H56.3448C58.3445 41.3448 59.9655 39.7238 59.9655 37.7241V4.62069C59.9655 2.62104 58.3445 1 56.3448 1Z" fill="white" stroke="#F3F3F3" stroke-width="1.03448"/>
<path fill-rule="evenodd" clip-rule="evenodd" d="M22.4643 32.4386V33.9663V35.4941H21.7947V35.1232C21.5823 35.3983 21.2601 35.571 20.8221 35.571C19.9585 35.571 19.2815 34.9 19.2815 33.9663C19.2815 33.0334 19.9585 32.3617 20.8221 32.3617C21.2601 32.3617 21.5823 32.5344 21.7947 32.8096V32.4386H22.4643ZM20.9053 32.9881C20.3257 32.9881 19.971 33.4293 19.971 33.9663C19.971 34.5034 20.3257 34.9446 20.9053 34.9446C21.4592 34.9446 21.8331 34.5225 21.8331 33.9663C21.8331 33.4103 21.4592 32.9881 20.9053 32.9881ZM45.0925 33.9663C45.0925 33.4293 45.4472 32.9881 46.0268 32.9881C46.5814 32.9881 46.9546 33.4103 46.9546 33.9663C46.9546 34.5225 46.5814 34.9446 46.0268 34.9446C45.4472 34.9446 45.0925 34.5034 45.0925 33.9663ZM47.5866 31.2115V33.9663V35.4941H46.9163V35.1232C46.7038 35.3983 46.3816 35.571 45.9436 35.571C45.08 35.571 44.403 34.9 44.403 33.9663C44.403 33.0334 45.08 32.3617 45.9436 32.3617C46.3816 32.3617 46.7038 32.5344 46.9163 32.8096V31.2115H47.5866ZM30.7763 32.9567C31.2077 32.9567 31.4849 33.2251 31.5558 33.6979H29.9577C30.0292 33.2567 30.2991 32.9567 30.7763 32.9567ZM29.2556 33.9663C29.2556 33.0137 29.8868 32.3617 30.7895 32.3617C31.6524 32.3617 32.2452 33.0137 32.2519 33.9663C32.2519 34.0556 32.2452 34.1391 32.2386 34.2217H29.9518C30.0484 34.772 30.4414 34.9703 30.8728 34.9703C31.1818 34.9703 31.5108 34.8546 31.7689 34.6505L32.097 35.1429C31.7231 35.4561 31.2984 35.571 30.8345 35.571C29.9127 35.571 29.2556 34.9381 29.2556 33.9663ZM38.875 33.9663C38.875 33.4293 39.2298 32.9881 39.8094 32.9881C40.3631 32.9881 40.7371 33.4103 40.7371 33.9663C40.7371 34.5225 40.3631 34.9446 39.8094 34.9446C39.2298 34.9446 38.875 34.5034 38.875 33.9663ZM41.3683 32.4386V33.9663V35.4941H40.6987V35.1232C40.4856 35.3983 40.1641 35.571 39.726 35.571C38.8624 35.571 38.1855 34.9 38.1855 33.9663C38.1855 33.0334 38.8624 32.3617 39.726 32.3617C40.1641 32.3617 40.4856 32.5344 40.6987 32.8096V32.4386H41.3683ZM35.0933 33.9663C35.0933 34.8934 35.7438 35.571 36.7363 35.571C37.2002 35.571 37.5092 35.4686 37.8441 35.2066L37.5225 34.6696C37.2711 34.8488 37.007 34.9446 36.7165 34.9446C36.1818 34.9381 35.7888 34.5546 35.7888 33.9663C35.7888 33.3781 36.1818 32.9946 36.7165 32.9881C37.007 32.9881 37.2711 33.0839 37.5225 33.2632L37.8441 32.7261C37.5092 32.4641 37.2002 32.3617 36.7363 32.3617C35.7438 32.3617 35.0933 33.0393 35.0933 33.9663ZM42.9148 32.8096C43.0888 32.541 43.3403 32.3617 43.7268 32.3617C43.8624 32.3617 44.0556 32.3874 44.2039 32.4451L43.9974 33.0715C43.8558 33.0137 43.7141 32.9946 43.5785 32.9946C43.1404 32.9946 42.9214 33.2756 42.9214 33.7812V35.4941H42.2511V32.4386H42.9148V32.8096ZM25.7763 32.6815C25.454 32.4708 25.0101 32.3617 24.5203 32.3617C23.7401 32.3617 23.2379 32.7327 23.2379 33.34C23.2379 33.8383 23.6119 34.1456 24.3006 34.2415L24.617 34.2861C24.9842 34.3374 25.1576 34.4332 25.1576 34.6058C25.1576 34.8422 24.9127 34.9768 24.4555 34.9768C23.9916 34.9768 23.6569 34.8298 23.4311 34.657L23.1155 35.1744C23.4828 35.4429 23.9466 35.571 24.4489 35.571C25.3382 35.571 25.8537 35.1553 25.8537 34.5737C25.8537 34.0366 25.4481 33.7556 24.7777 33.6598L24.4621 33.6144C24.1723 33.5763 23.94 33.5193 23.94 33.3144C23.94 33.0905 24.159 32.9567 24.5262 32.9567C24.9193 32.9567 25.2998 33.1037 25.4865 33.2186L25.7763 32.6815ZM33.6052 32.8096C33.7785 32.541 34.0299 32.3617 34.4163 32.3617C34.552 32.3617 34.7453 32.3874 34.8934 32.4451L34.6869 33.0715C34.5454 33.0137 34.4038 32.9946 34.2681 32.9946C33.8301 32.9946 33.6111 33.2756 33.6111 33.7812V35.4941H32.9415V32.4386H33.6052V32.8096ZM28.7017 32.4386H27.6066V31.5115H26.9297V32.4386H26.305V33.0458H26.9297V34.4398C26.9297 35.1488 27.2069 35.571 27.999 35.571C28.2895 35.571 28.6243 35.4817 28.8367 35.3346L28.6435 34.7654C28.4436 34.8803 28.2246 34.9381 28.0506 34.9381C27.7158 34.9381 27.6066 34.7332 27.6066 34.4266V33.0458H28.7017V32.4386ZM18.6893 33.5763V35.4941H18.0123V33.7937C18.0123 33.2756 17.7933 32.9881 17.3361 32.9881C16.8913 32.9881 16.5823 33.2698 16.5823 33.8003V35.4941H15.9054V33.7937C15.9054 33.2756 15.6805 32.9881 15.2358 32.9881C14.7778 32.9881 14.4814 33.2698 14.4814 33.8003V35.4941H13.8052V32.4386H14.4755V32.8154C14.727 32.4576 15.0485 32.3617 15.3774 32.3617C15.8479 32.3617 16.1827 32.5667 16.3951 32.9054C16.679 32.4767 17.0846 32.3551 17.4777 32.3617C18.2254 32.3683 18.6893 32.8541 18.6893 33.5763Z" fill="#231F20"/>
<path d="M35.7031 27.2464H25.5542V9.14996H35.7031V27.2464Z" fill="#FF5F00"/>
<path d="M26.1982 18.1986C26.1982 14.5276 27.9305 11.2576 30.6281 9.15035C28.6554 7.60938 26.1657 6.68964 23.4601 6.68964C17.0545 6.68964 11.8621 11.8423 11.8621 18.1986C11.8621 24.5549 17.0545 29.7075 23.4601 29.7075C26.1657 29.7075 28.6554 28.7878 30.6281 27.2468C27.9305 25.1396 26.1982 21.8696 26.1982 18.1986Z" fill="#EB001B"/>
<path d="M49.3948 18.1986C49.3948 24.5549 44.2023 29.7075 37.7968 29.7075C35.091 29.7075 32.6014 28.7878 30.6279 27.2468C33.3263 25.1396 35.0586 21.8696 35.0586 18.1986C35.0586 14.5276 33.3263 11.2576 30.6279 9.15035C32.6014 7.60938 35.091 6.68964 37.7968 6.68964C44.2023 6.68964 49.3948 11.8423 49.3948 18.1986Z" fill="#F79E1B"/>
</svg>
