<svg width="34" height="34" viewBox="0 0 34 34" fill="none" xmlns="http://www.w3.org/2000/svg">
<g clip-path="url(#clip0_18_13)">
<path d="M15.5671 7.26196L8.52288 15.7433L1.00024 16.6543L6.65002 9.26969L15.5671 7.26196Z" fill="white"/>
<path d="M27.7381 19.4329L19.2568 26.4771L18.3458 33.9997L25.7304 28.351L27.7381 19.4329Z" fill="white"/>
<path d="M34.2553 8.85366C35.462 5.41196 35.0947 2.2556 33.9201 1.07995C32.7445 -0.0946468 29.5882 -0.46194 26.1475 0.744795L34.2553 8.85366Z" fill="white"/>
<path d="M33.6129 10.3944L24.6055 1.38696C23.0636 2.1351 21.5156 3.21108 20.1086 4.68549C16.0765 8.90853 9.76892 17.1813 9.76892 17.1813L17.1006 24.5119L17.8186 25.231C17.8186 25.231 26.0924 18.9245 30.3144 14.8913C31.7889 13.4843 32.8649 11.9363 33.6129 10.3944ZM20.1076 14.8923C18.6985 13.4833 18.6985 11.1995 20.1076 9.78941C21.5167 8.38034 23.8014 8.38034 25.2105 9.78941C26.6196 11.1995 26.6196 13.4833 25.2094 14.8923C23.8014 16.3014 21.5167 16.3014 20.1076 14.8923Z" fill="white"/>
<path d="M13.6786 25.9781L12.8734 25.1729C11.9541 28.6146 7.44578 29.8078 7.44578 29.8078C7.44578 29.8078 9.17029 27.7004 9.26677 26.2623C9.38923 24.4351 8.69196 25.1127 7.82968 25.4956C6.88545 25.9148 5.38506 25.9272 5.38506 25.9272C5.38506 25.9272 6.10411 25.3046 6.86984 23.771C7.39485 22.721 8.60676 22.1648 9.64854 21.948L9.0218 21.3213C7.79953 20.405 5.86438 21.3264 4.93058 22.9794C4.17833 24.3085 2.83878 27.5053 1.38721 27.581C2.30448 28.3447 3.60146 28.7255 5.2045 28.0396C6.80762 27.3517 7.19045 28.0396 5.89141 29.3366C5.04885 30.1802 1.99834 31.2447 1.92257 32.8479C3.67822 32.4671 7.24025 33.0616 9.78547 31.8559C12.6856 30.4822 14.1362 27.8104 13.6786 25.9781Z" fill="white"/>
</g>
<defs>
<clipPath id="clip0_18_13">
<rect width="34" height="34" fill="white"/>
</clipPath>
</defs>
</svg>
