<svg width="40" height="39" viewBox="0 0 40 39" fill="none" xmlns="http://www.w3.org/2000/svg">
<path fill-rule="evenodd" clip-rule="evenodd" d="M19.5404 29.5307C16.0129 29.5307 12.4292 27.4367 10.3377 24.6652C0.30333 24.6652 0 39 0 39H39.0783C39.0783 39 39.866 24.6016 28.5816 24.6016C26.4925 27.4074 23.0678 29.5307 19.5404 29.5307Z" fill="white"/>
<path fill-rule="evenodd" clip-rule="evenodd" d="M27.9455 12.346C27.9455 16.4703 24.1808 24.3569 19.533 24.3569C14.8925 24.3569 11.1254 16.4679 11.1254 12.346C11.1254 8.22411 14.8901 4.87769 19.533 4.87769C24.1808 4.88013 27.9455 8.22655 27.9455 12.346Z" fill="white"/>
<path fill-rule="evenodd" clip-rule="evenodd" d="M31.6981 8.7868C31.6981 8.0138 30.6217 7.39001 29.2861 7.38512V5.79264C29.2861 5.55535 29.3766 0 19.5624 0C9.75308 0 9.84359 5.55535 9.84359 5.79264V7.44138C9.81912 7.44138 9.79956 7.43405 9.77754 7.43405C8.44924 7.43405 7.38025 8.04805 7.38025 8.80882V15.5457C7.38025 16.3016 8.45169 16.918 9.77754 16.918C11.1034 16.918 12.1797 16.3016 12.1797 15.5457V8.80882C12.1797 8.70363 12.1137 8.60823 12.0745 8.51038V6.67327C12.0745 6.50448 11.37 2.31167 19.5624 2.31167C27.7572 2.31167 26.9059 6.50448 26.9059 6.67327V8.60823C26.8913 8.66938 26.8448 8.7232 26.8448 8.7868V15.6778C26.8448 16.4532 27.9284 17.0819 29.2714 17.0819C29.3008 17.0819 29.3228 17.0721 29.3521 17.0721V19.5893H26.9451V21.9621H31.7225L31.6981 8.7868Z" fill="white"/>
</svg>
