<svg width="60" height="60" viewBox="0 0 60 60" fill="none" xmlns="http://www.w3.org/2000/svg">
<path d="M55.8622 9.82758H4.13802C2.13837 9.82758 0.517334 11.4486 0.517334 13.4483V46.5517C0.517334 48.5514 2.13837 50.1724 4.13802 50.1724H55.8622C57.8618 50.1724 59.4828 48.5514 59.4828 46.5517V13.4483C59.4828 11.4486 57.8618 9.82758 55.8622 9.82758Z" fill="white" stroke="#F3F3F3" stroke-width="1.03448"/>
<path d="M26.6397 37.6895H22.645L25.1436 23.2061H29.1381L26.6397 37.6895Z" fill="#15195A"/>
<path d="M41.1205 23.5601C40.3326 23.2671 39.0829 22.9435 37.5377 22.9435C33.5928 22.9435 30.8149 24.9156 30.7978 27.7351C30.765 29.8153 32.7867 30.9708 34.2988 31.6644C35.8442 32.3732 36.3697 32.8358 36.3697 33.4676C36.3539 34.4379 35.1208 34.8851 33.9707 34.8851C32.3758 34.8851 31.5213 34.6545 30.2227 34.1148L29.6967 33.8833L29.1377 37.1345C30.0746 37.5347 31.8008 37.8898 33.5928 37.9054C37.7843 37.9054 40.5131 35.9638 40.5454 32.9591C40.5613 31.3104 39.4938 30.047 37.1923 29.0147C35.7951 28.352 34.9395 27.9051 34.9395 27.2271C34.9559 26.6106 35.6632 25.9793 37.2404 25.9793C38.539 25.9483 39.4932 26.241 40.216 26.5339L40.5772 26.6877L41.1205 23.5601Z" fill="#15195A"/>
<path fill-rule="evenodd" clip-rule="evenodd" d="M48.2709 23.2061H51.3607L54.5834 37.6893H50.8847C50.8847 37.6893 50.5228 36.0253 50.4081 35.5167H45.2793C45.131 35.9017 44.4409 37.6893 44.4409 37.6893H40.2495L46.183 24.4077C46.5941 23.4678 47.318 23.2061 48.2709 23.2061ZM48.0247 28.5062C48.0247 28.5062 46.7588 31.7265 46.4298 32.5585H49.7502C49.5859 31.8345 48.8294 28.3675 48.8294 28.3675L48.5503 27.1196C48.4327 27.4409 48.2627 27.8827 48.148 28.1808C48.0703 28.3827 48.018 28.5186 48.0247 28.5062Z" fill="#15195A"/>
<path fill-rule="evenodd" clip-rule="evenodd" d="M5.33675 23.2061H11.7637C12.6349 23.2366 13.3418 23.4985 13.5717 24.4235L14.9685 31.0782L14.9689 31.0794L15.3964 33.0824L19.3085 23.2061H23.5325L17.2536 37.6742H13.0294L9.46896 25.0893C8.24051 24.416 6.83851 23.8744 5.271 23.4987L5.33675 23.2061Z" fill="#15195A"/>
</svg>
